<svg width="33" height="32" viewBox="0 0 33 32" fill="none" xmlns="http://www.w3.org/2000/svg">
<path fill-rule="evenodd" clip-rule="evenodd" d="M1.83466 29.5003H1.74147C1.74147 29.4547 1.71813 29.3859 1.71813 29.3629C1.71813 29.3401 1.71813 29.2945 1.64811 29.2945H1.50807V29.5003H1.43806V29.0196H1.64811C1.74147 29.0196 1.81132 29.0426 1.81132 29.1339C1.81132 29.2027 1.78798 29.2257 1.76481 29.2483C1.78815 29.2714 1.81132 29.2943 1.81132 29.3401V29.4316C1.81132 29.4547 1.81132 29.4547 1.83466 29.4547V29.5003ZM1.74147 29.157C1.74147 29.0883 1.69479 29.0883 1.67145 29.0883H1.50807V29.2257H1.64811C1.69479 29.2257 1.74147 29.2027 1.74147 29.157V29.157ZM2.13807 29.2485C2.13807 28.9739 1.90484 28.7446 1.60143 28.7446C1.32153 28.7446 1.08813 28.9739 1.08813 29.2485C1.08813 29.5462 1.32153 29.7754 1.60143 29.7754C1.90467 29.7752 2.13807 29.5462 2.13807 29.2485ZM2.06805 29.2485C2.06805 29.5005 1.85816 29.6836 1.60143 29.6836C1.3447 29.6836 1.15815 29.5003 1.15815 29.2485C1.15815 29.0196 1.34487 28.8134 1.60143 28.8134C1.85799 28.8134 2.06805 29.0196 2.06805 29.2485ZM30.8116 19.9964C30.8116 20.6835 30.3684 21.0038 29.575 21.0038H28.0588V20.3167H29.575C29.715 20.3167 29.8317 20.2939 29.8786 20.2483C29.9251 20.2023 29.9718 20.1335 29.9718 20.0421C29.9718 19.9503 29.9252 19.8588 29.8786 19.8131C29.8317 19.7672 29.7385 19.7444 29.5985 19.7444C28.8755 19.7213 27.9654 19.7672 27.9654 18.7596C27.9654 18.3014 28.2687 17.7976 29.0852 17.7976H30.6483V18.4847H29.2017C29.062 18.4847 28.9685 18.4847 28.8985 18.5304C28.8285 18.5991 28.782 18.6678 28.782 18.7824C28.782 18.8969 28.852 18.9656 28.9452 19.0116C29.0387 19.0344 29.1321 19.0573 29.2487 19.0573H29.6685C30.1118 19.0573 30.3919 19.1488 30.5786 19.3093C30.7183 19.4695 30.8116 19.6758 30.8116 19.9964V19.9964ZM27.522 19.3093C27.3353 19.1488 27.0552 19.0573 26.6119 19.0573H26.1921C26.0756 19.0573 25.9821 19.0342 25.8889 19.0116C25.7954 18.9656 25.7257 18.8969 25.7257 18.7824C25.7257 18.6678 25.7489 18.5991 25.8422 18.5304C25.9122 18.4847 26.0054 18.4847 26.1455 18.4847H27.592V17.7976H26.0289C25.1889 17.7976 24.9088 18.3014 24.9088 18.7596C24.9088 19.767 25.8189 19.7213 26.5422 19.7444C26.6819 19.7444 26.7755 19.7672 26.822 19.8131C26.8685 19.8588 26.9155 19.9503 26.9155 20.0421C26.9155 20.1335 26.8686 20.2023 26.822 20.2483C26.7519 20.2939 26.6588 20.3167 26.5187 20.3167H25.0022V21.0038H26.5187C27.3118 21.0038 27.7552 20.6834 27.7552 19.9964C27.7552 19.6758 27.662 19.4695 27.522 19.3093V19.3093ZM24.5356 20.3399H22.6928V19.6986H24.489V19.0576H22.6928V18.462H24.5356V17.7979H21.9227V21.004H24.5356V20.3399ZM21.0827 17.9583C20.826 17.8208 20.5227 17.7977 20.1261 17.7977H18.3298V21.0038H19.1229V19.8359H19.9629C20.2426 19.8359 20.4062 19.859 20.5229 19.9733C20.6629 20.1335 20.6629 20.4085 20.6629 20.6147V21.0038H21.4326V20.3854C21.4326 20.0877 21.4094 19.9503 21.3161 19.7901C21.2461 19.6983 21.1064 19.5839 20.9196 19.5151C21.1294 19.4468 21.4796 19.1718 21.4796 18.6678C21.4795 18.3016 21.3394 18.0954 21.0827 17.9583V17.9583ZM16.6499 17.7977H14.1534L13.1502 18.8513L12.1936 17.7977H9.04398V21.0038H12.1471L13.1503 19.9503L14.1069 21.0038H15.6235V19.9277H16.6034C17.2799 19.9277 17.9567 19.7444 17.9567 18.8513C17.9566 17.981 17.2566 17.7977 16.6499 17.7977ZM20.4527 19.1262C20.3362 19.1718 20.2195 19.1718 20.0794 19.1718L19.1229 19.1949V18.4618H20.0794C20.2195 18.4618 20.3595 18.4618 20.4527 18.5305C20.5462 18.5765 20.6159 18.668 20.6159 18.8054C20.6159 18.9429 20.5462 19.0575 20.4527 19.1262V19.1262ZM16.6499 19.2864H15.6233V18.4618H16.6499C16.93 18.4618 17.1165 18.5765 17.1165 18.8513C17.1165 19.1262 16.9298 19.2864 16.6499 19.2864ZM13.6401 19.4008L14.8533 18.1414V20.7292L13.6401 19.4008ZM11.7503 20.3399H9.81384V19.6986H11.5403V19.0576H9.81384V18.462H11.7737L12.6369 19.4009L11.7503 20.3399V20.3399ZM28.6418 15.4847H27.522L26.0521 13.08V15.4847H24.4659L24.1623 14.7746H22.5292L22.226 15.4847H21.3159C20.9426 15.4847 20.4527 15.393 20.173 15.1181C19.9162 14.8434 19.7762 14.477 19.7762 13.9044C19.7762 13.4235 19.8462 12.9883 20.196 12.6449C20.4292 12.3929 20.8493 12.2785 21.3858 12.2785H22.1323V12.9656H21.3858C21.106 12.9656 20.9425 13.0114 20.7793 13.1489C20.6392 13.2863 20.5692 13.5382 20.5692 13.8817C20.5692 14.2251 20.6392 14.4772 20.7793 14.6375C20.8958 14.7519 21.106 14.7977 21.3157 14.7977H21.6658L22.7856 12.2786H23.9522L25.2587 15.3016V12.2785H26.472L27.8486 14.4999V12.2785H28.6416V15.4847H28.6418V15.4847ZM19.3796 12.2785H18.5866V15.4847H19.3796V12.2785V12.2785ZM17.723 12.4159C17.4663 12.2785 17.1865 12.2785 16.7899 12.2785H14.9933V15.4847H15.7632V14.3166H16.6031C16.8831 14.3166 17.0698 14.3395 17.1864 14.4541C17.3264 14.6144 17.3029 14.8894 17.3029 15.0725V15.4847H18.0959V14.8434C18.0959 14.5686 18.0728 14.4312 17.9562 14.2708C17.8862 14.1792 17.7462 14.0646 17.583 13.996C17.7927 13.9044 18.1429 13.6526 18.1429 13.1487C18.1431 12.7823 17.9796 12.5761 17.723 12.4159ZM14.4333 14.8206H12.6135V14.1793H14.41V13.5153H12.6135V12.9427H14.4333V12.2786H11.8203V15.4849H14.4333V14.8206ZM11.237 12.2785H9.95387L8.9973 14.4541L7.97071 12.2785H6.71089V15.3014L5.38105 12.2785H4.21459L2.81474 15.4847H3.65462L3.95786 14.7746H5.59094L5.89418 15.4847H7.48075V12.9656L8.62387 15.4847H9.30037L10.4437 12.9656V15.4847H11.2369V12.2785H11.237ZM23.8826 14.0877L23.3458 12.8281L22.8093 14.0877H23.8826ZM17.1165 13.584C17 13.6527 16.8833 13.6527 16.7199 13.6527H15.7632V12.9429H16.7197C16.8598 12.9429 17.0228 12.9429 17.1163 12.9887C17.2095 13.0574 17.2564 13.149 17.2564 13.2863C17.2564 13.4236 17.2097 13.538 17.1165 13.584V13.584ZM4.23776 14.0877L4.7744 12.8281L5.31103 14.0877H4.23776V14.0877ZM30.6251 2.22473H2.79123V13.7671L3.74781 11.6373H5.77748L6.05756 12.1641V11.6373H8.43732L8.97396 12.7823L9.48726 11.6373H17.0698C17.4196 11.6373 17.7228 11.7061 17.9564 11.8892V11.6373H20.0328V11.8892C20.3825 11.7059 20.8258 11.6373 21.3392 11.6373H24.3488L24.6289 12.1641V11.6373H26.8453L27.1721 12.1641V11.6373H29.3416V16.126H27.1487L26.7289 15.439V16.126H23.9991L23.6958 15.3932H23.019L22.7158 16.126H21.2927C20.7328 16.126 20.3127 15.9885 20.0329 15.8512V16.126H16.6499V15.0954C16.6499 14.9579 16.6266 14.935 16.5332 14.935H16.4167V16.1258H9.88386V15.5532L9.65063 16.1258H8.27412L8.04089 15.5762V16.1258H5.40439L5.12449 15.393H4.44782L4.14457 16.1258H2.79123V29.6607H30.6251V21.4389C30.3218 21.5764 29.9017 21.6451 29.4818 21.6451H27.452V21.3702C27.2187 21.5536 26.7986 21.6451 26.4022 21.6451H20.0094V20.6147C20.0094 20.4772 19.9862 20.4772 19.8694 20.4772H19.7528V21.6451H17.653V20.4314C17.3032 20.5916 16.9065 20.5916 16.5565 20.5916H16.3231V21.6451H13.7568L13.1503 20.958L12.4738 21.6451H8.34397V17.1566H12.5435L13.1502 17.8434L13.8035 17.1566H16.6266C16.953 17.1566 17.4898 17.2023 17.723 17.4312V17.1566H20.2426C20.4994 17.1566 20.9895 17.2023 21.3159 17.4312V17.1566H25.1189V17.4314C25.3289 17.2481 25.7257 17.1568 26.0754 17.1568H28.1985V17.4314C28.432 17.2712 28.7585 17.1568 29.1786 17.1568H30.6251V2.22473V2.22473Z" fill="white"/>
</svg>
