<svg width="37" height="32" viewBox="0 0 37 32" fill="none" xmlns="http://www.w3.org/2000/svg">
<path fill-rule="evenodd" clip-rule="evenodd" d="M18.9079 22.0866C20.5356 23.4124 22.7215 24.2165 25.099 24.2165C30.2052 24.2165 34.338 20.535 34.338 16.007C34.338 11.4652 30.2052 7.78357 25.099 7.78357C22.7215 7.78357 20.5356 8.58757 18.9079 9.91352C17.041 11.4227 15.8601 13.595 15.8601 16.007C15.8603 18.419 17.041 20.5915 18.9079 22.0866V22.0866Z" fill="#E9B040"/>
<path fill-rule="evenodd" clip-rule="evenodd" d="M33.1096 20.5772C33.1096 20.4361 33.2373 20.3234 33.3968 20.3234C33.5722 20.3234 33.6997 20.4363 33.6997 20.5772C33.6997 20.7326 33.572 20.8453 33.3968 20.8453C33.2373 20.8453 33.1096 20.7326 33.1096 20.5772ZM33.3968 20.789C33.5245 20.789 33.6358 20.6901 33.6358 20.5774C33.6358 20.4646 33.5243 20.38 33.3968 20.38C33.2848 20.38 33.1735 20.4646 33.1735 20.5774C33.1735 20.6901 33.285 20.789 33.3968 20.789ZM33.3648 20.7044H33.301V20.4645H33.4125C33.4287 20.4645 33.4606 20.4645 33.4764 20.4788C33.5083 20.4927 33.5083 20.507 33.5083 20.5352C33.5083 20.5634 33.4925 20.5916 33.4606 20.5916L33.5245 20.7045H33.4445L33.4125 20.6056H33.3648V20.7044V20.5633H33.4287C33.4445 20.5633 33.4445 20.549 33.4445 20.535C33.4445 20.5208 33.4445 20.5208 33.4287 20.5068H33.3648V20.7044V20.7044Z" fill="#E9B040"/>
<path fill-rule="evenodd" clip-rule="evenodd" d="M21.8919 15.1326C21.86 14.8365 21.7961 14.5544 21.7323 14.2581H16.0835C16.1474 13.9619 16.2432 13.6799 16.3388 13.3976H21.4611C21.3499 13.1007 21.2221 12.8088 21.0781 12.5231H16.7378C16.8975 12.2243 17.0732 11.9324 17.2644 11.6485H20.5358C20.3253 11.3473 20.0907 11.0597 19.8338 10.7881H17.9666C18.2554 10.4763 18.5701 10.184 18.9081 9.91352C17.2646 8.60168 15.0944 7.78357 12.7008 7.78357C7.61065 7.78357 3.46191 11.4652 3.46191 16.007C3.46191 20.535 7.61065 24.2165 12.7008 24.2165C15.0944 24.2165 17.2644 23.4124 18.9081 22.0866C19.2409 21.8209 19.5503 21.5332 19.8338 21.226H17.9666C17.7112 20.9439 17.4879 20.6619 17.2644 20.3514H20.5358C20.7415 20.0725 20.9228 19.7801 21.0783 19.4769H16.7378C16.5942 19.1948 16.4507 18.9127 16.3388 18.6162H21.4611C21.5726 18.3342 21.6526 18.0382 21.7321 17.7417C21.7959 17.4596 21.8598 17.1636 21.8917 16.8671C21.924 16.5812 21.9401 16.2939 21.9398 16.0065C21.9398 15.7109 21.9238 15.4147 21.8919 15.1326V15.1326Z" fill="#CC2131"/>
<path fill-rule="evenodd" clip-rule="evenodd" d="M15.7645 18.3768C15.4614 18.4472 15.2379 18.4897 15.0146 18.4897C14.5359 18.4897 14.2486 18.2216 14.2486 17.742C14.2486 17.6433 14.2646 17.5446 14.2805 17.4317L14.3444 17.1074L14.3923 16.8393L14.8231 14.5261H15.7805L15.6688 15.0339H16.2752L16.1315 15.8803H15.5251L15.2699 17.2625C15.2539 17.3332 15.2539 17.3754 15.2539 17.4036C15.2539 17.5871 15.3497 17.6574 15.5889 17.6574C15.7007 17.6574 15.7963 17.6435 15.892 17.6292L15.7645 18.3768V18.3768ZM18.8603 18.3486C18.5093 18.4332 18.1902 18.4754 17.839 18.4754C16.7539 18.4754 16.1315 17.9676 16.1315 16.9663C16.1315 15.7954 16.8656 14.9491 17.8867 14.9491C18.7004 14.9491 19.227 15.4287 19.227 16.1761C19.227 16.4303 19.1951 16.67 19.1155 17.0085H17.1208C17.1049 17.0649 17.1049 17.0932 17.1049 17.1214C17.1049 17.5163 17.408 17.7137 17.9825 17.7137C18.3494 17.7137 18.6685 17.6433 19.0197 17.5024L18.8603 18.3486ZM18.2698 16.3315V16.1622C18.2698 15.8801 18.0942 15.7249 17.7911 15.7249C17.4718 15.7249 17.2485 15.9364 17.1528 16.3313H18.2698V16.3315V16.3315ZM8.10521 18.419H7.11586L7.69035 15.2172L6.3979 18.419H5.71185L5.63204 15.2313L5.02562 18.419H4.05225L4.83407 14.258H6.28615L6.31808 16.8254L7.29146 14.258H8.88721L8.10521 18.419V18.419ZM10.5149 16.9099C10.4191 16.8956 10.3872 16.8956 10.3233 16.8956C9.74885 16.8956 9.4617 17.093 9.4617 17.4034C9.4617 17.6151 9.60537 17.7562 9.82867 17.7562C10.3074 17.7562 10.4987 17.4034 10.5149 16.9099ZM11.3127 18.419H10.451L10.467 18.0665C10.2435 18.3343 9.94041 18.4754 9.41381 18.4754C8.9351 18.4754 8.52025 18.0947 8.52025 17.5446C8.52025 17.3895 8.55217 17.2486 8.60006 17.1074C8.75951 16.5853 9.34996 16.2611 10.2595 16.2468C10.3712 16.2468 10.5466 16.2468 10.7063 16.2611C10.738 16.1482 10.738 16.1057 10.738 16.0353C10.738 15.8096 10.5307 15.739 10.0679 15.739C9.78078 15.739 9.46151 15.7813 9.23822 15.8519L9.09455 15.8801L9.03069 15.8941L9.17436 15.1324C9.63711 15.0054 9.97215 14.9491 10.3393 14.9491C11.2009 14.9491 11.6637 15.3017 11.6637 15.9505C11.6637 16.1198 11.6796 16.2468 11.6158 16.6136L11.3925 17.8266L11.3606 18.0383L11.3446 18.2076L11.3286 18.3205L11.3127 18.419V18.419ZM23.6793 15.062C23.9664 15.062 24.2218 15.1326 24.5728 15.2876L24.7482 14.3848C24.6525 14.3425 24.6205 14.3425 24.493 14.3002L24.0943 14.2014C23.9666 14.1732 23.8072 14.1591 23.6314 14.1591C23.1365 14.1591 22.8494 14.1732 22.5464 14.3284C22.3868 14.4272 22.1793 14.5542 21.9558 14.7798L21.8281 14.7516L20.8068 15.3862L20.8549 15.0336H19.8015L19.1795 18.4188H20.185L20.5518 16.5994C20.5518 16.5994 20.6957 16.3453 20.7593 16.2609C20.9509 16.0493 21.1103 16.0493 21.3177 16.0493H21.3977C21.3642 16.2643 21.3481 16.4811 21.3496 16.6981C21.3496 17.7982 22.0516 18.4895 23.1367 18.4895C23.4081 18.4895 23.6477 18.4613 24.0145 18.3766L24.1903 17.4176C23.8712 17.5726 23.5839 17.6432 23.3444 17.6432C22.7542 17.6432 22.4028 17.2482 22.4028 16.6277C22.4024 15.7108 22.9292 15.062 23.6793 15.062V15.062ZM32.152 14.258L31.9289 15.4428C31.6894 15.1184 31.4021 14.9632 31.0191 14.9632C30.4924 14.9632 29.9979 15.2312 29.6946 15.739V15.7251L29.0564 15.3864L29.1203 15.0338H28.0511L27.4447 18.419H28.434L28.7693 16.5996C28.7693 16.5996 29.0245 16.3454 29.0883 16.2611C29.248 16.0918 29.4074 16.0634 29.5351 16.0494C29.4236 16.3315 29.3597 16.67 29.3597 17.051C29.3597 17.8973 29.8542 18.4615 30.5881 18.4615C30.9553 18.4615 31.2424 18.3486 31.5136 18.0805L31.4659 18.419H32.4076L33.1734 14.258H32.152V14.258ZM30.9235 17.6151C30.5883 17.6151 30.4129 17.3895 30.4129 16.9521C30.4129 16.289 30.732 15.8096 31.1945 15.8096C31.5455 15.8096 31.7213 16.0494 31.7213 16.4726C31.7213 17.1496 31.4023 17.6151 30.9235 17.6151V17.6151ZM26.3123 16.9099C26.2165 16.8956 26.1845 16.8956 26.1207 16.8956C25.5458 16.8956 25.2587 17.093 25.2587 17.4034C25.2587 17.6151 25.4025 17.7562 25.6258 17.7562C26.1045 17.7562 26.2961 17.4034 26.3123 16.9099ZM27.11 18.419H26.2322L26.2642 18.0665C26.0409 18.3343 25.7374 18.4754 25.2112 18.4754C24.7163 18.4754 24.2857 18.1087 24.2857 17.5446C24.2857 16.7407 24.9715 16.247 26.0567 16.247C26.1686 16.247 26.3438 16.247 26.4877 16.2613C26.5196 16.1484 26.5357 16.1059 26.5357 16.0355C26.5357 15.8097 26.3282 15.7392 25.8495 15.7392C25.5781 15.7392 25.2431 15.7815 25.0198 15.8521L24.8921 15.8803L24.8282 15.8942L24.9717 15.1326C25.4347 15.0056 25.7699 14.9493 26.1367 14.9493C26.9983 14.9493 27.4451 15.3019 27.4451 15.9507C27.4451 16.12 27.477 16.247 27.3974 16.6137L27.1899 17.8268L27.1579 18.0384L27.126 18.2078L27.1102 18.3207V18.419H27.11V18.419ZM13.4029 15.7531C13.5945 15.7531 13.8657 15.7672 14.153 15.8096L14.2967 15.0197C14.0093 14.9914 13.6264 14.9491 13.4029 14.9491C12.2861 14.9491 11.9191 15.4852 11.9191 16.1057C11.9191 16.5149 12.1264 16.8109 12.669 17.0366C13.0679 17.2059 13.1317 17.234 13.1317 17.3893C13.1317 17.6007 12.9244 17.7278 12.5413 17.7278C12.2382 17.7278 11.9508 17.6853 11.6318 17.5867L11.52 18.3623L11.5358 18.3766L11.7273 18.4048C11.7912 18.4188 11.871 18.4331 11.9828 18.447C12.222 18.4613 12.4295 18.4752 12.5572 18.4752C13.6743 18.4752 14.137 18.0946 14.137 17.3468C14.137 16.8815 13.8816 16.5994 13.387 16.4021C12.9561 16.2326 12.9082 16.2047 12.9082 16.0493C12.9082 15.8942 13.0998 15.7531 13.4029 15.7531V15.7531Z" fill="white"/>
</svg>
