<svg width="40" height="40" viewBox="0 0 40 40" fill="none" xmlns="http://www.w3.org/2000/svg">
<path d="M16.8735 24.0149H14.264L15.8949 13.9918H18.5047L16.8735 24.0149ZM12.0687 13.9918L9.58091 20.8858L9.28653 19.4013L9.28679 19.4018L8.40873 14.8943C8.40873 14.8943 8.30256 13.9918 7.17086 13.9918H3.05803L3.00977 14.1616C3.00977 14.1616 4.26748 14.4232 5.73941 15.3072L8.00656 24.0152H10.7255L14.8772 13.9918H12.0687V13.9918ZM32.594 24.0149H34.9901L32.901 13.9916H30.8033C29.8346 13.9916 29.5987 14.7385 29.5987 14.7385L25.7068 24.0149H28.427L28.971 22.5261H32.2884L32.594 24.0149ZM29.7225 20.4694L31.0937 16.7185L31.865 20.4694H29.7225ZM25.9108 16.4022L26.2832 14.2498C26.2832 14.2498 25.1341 13.8127 23.9361 13.8127C22.6412 13.8127 19.5659 14.3787 19.5659 17.1309C19.5659 19.7203 23.1752 19.7525 23.1752 21.1126C23.1752 22.4727 19.9378 22.229 18.8694 21.3713L18.4814 23.6219C18.4814 23.6219 19.6466 24.1879 21.4269 24.1879C23.2077 24.1879 25.8942 23.2658 25.8942 20.7563C25.8942 18.1503 22.2524 17.9076 22.2524 16.7746C22.2527 15.6413 24.7941 15.7868 25.9108 16.4022V16.4022Z" fill="#0078FF"/>
<path d="M9.2868 19.4017L8.40873 14.8942C8.40873 14.8942 8.30256 13.9917 7.17086 13.9917H3.05803L3.00977 14.1614C3.00977 14.1614 4.98655 14.5711 6.88264 16.106C8.69561 17.5731 9.2868 19.4017 9.2868 19.4017Z" fill="#FF9B00"/>
</svg>
